<svg id="Icons" height="512" viewBox="0 0 60 60" width="512" xmlns="http://www.w3.org/2000/svg"><path d="m19 18v2.019a3.991 3.991 0 1 0 0 7.981v2.18a4.008 4.008 0 0 0 1.37 3.02l3.47 3.03h12.32l3.47-3.03a4.008 4.008 0 0 0 1.37-3.02v-2.18a3.991 3.991 0 1 0 0-7.981v-2.019z" fill="#fcd6ac"/><path d="m45.45 40.11-5.04-1.26h-20.82l-5.04 1.26a4.59 4.59 0 0 0 -3.55 4.39l6 14.5h26l6-14.5a4.59 4.59 0 0 0 -3.55-4.39z" fill="#3f5c6c"/><path d="m45.33 46.42a16 16 0 0 0 -30.66 0 17.2 17.2 0 0 0 1.25 12.58h5.62a1.338 1.338 0 0 1 .66-1.19l5.81-3.35a3.937 3.937 0 0 0 3.98 0l5.8 3.35a1.281 1.281 0 0 1 .65 1.19h5.64a17.2 17.2 0 0 0 1.25-12.58zm-17.33 1.12a3.98 3.98 0 0 0 -2 3.46l-5.79 3.35a1.271 1.271 0 0 1 -1.21.04l-1-3.12v-.05a12 12 0 0 1 8.32-11.64 1.307 1.307 0 0 1 1.68 1.26zm13.99 3.73-.99 3.13a1.308 1.308 0 0 1 -1.2-.05l-5.8-3.35a3.98 3.98 0 0 0 -2-3.46v-6.69a1.323 1.323 0 0 1 1.76-1.24 12 12 0 0 1 8.24 11.39 2.437 2.437 0 0 1 -.01.27z" fill="#3b96d2"/><path d="m45.11 45.76a2.479 2.479 0 0 1 3.835-1.27 2.811 2.811 0 0 1 1.055 2.268v4.242a2.006 2.006 0 0 1 2 2v3a3.009 3.009 0 0 1 -3 3h-6a2.006 2.006 0 0 1 -2-2v-4a2.006 2.006 0 0 1 2-2h3" fill="#fcd6ac"/><path d="m14 51h3a2.006 2.006 0 0 1 2 2v4a2.006 2.006 0 0 1 -2 2h-6a3.009 3.009 0 0 1 -3-3v-3a2.006 2.006 0 0 1 2-2v-4.242a2.811 2.811 0 0 1 1.055-2.268 2.479 2.479 0 0 1 3.835 1.27" fill="#fcd6ac"/><circle cx="30" cy="51" fill="#2980b9" r="1"/><path d="m32 33h-4a1 1 0 0 1 0-2h4a1 1 0 0 1 0 2z" fill="#ef9272"/><path d="m31 29h-2a1 1 0 0 1 0-2h2a1 1 0 0 1 0 2z" fill="#f8c694"/><path d="m28 40.84v2.28a4.283 4.283 0 0 0 -2.55 1.96.922.922 0 0 1 -1.36.25 5.175 5.175 0 0 1 -2.09-3.26v-.01a11.994 11.994 0 0 1 4.32-2.48 1.307 1.307 0 0 1 1.68 1.26z" fill="#ebeff0"/><path d="m38 42.07a5.152 5.152 0 0 1 -2.09 3.26.922.922 0 0 1 -1.36-.25 4.283 4.283 0 0 0 -2.55-1.96v-2.27a1.323 1.323 0 0 1 1.76-1.24 11.843 11.843 0 0 1 4.24 2.46z" fill="#ebeff0"/><path d="m41 14c3.454-1.45 5-3.625 5-6.048 0-4.39-7.162-6.952-16-6.952s-16 2.562-16 6.952c0 2.423 1.546 4.6 5 6.048z" fill="#efc319"/><path d="m36.146 24h-11.54a3 3 0 0 1 -2.5-1.336l-3.106-4.664h22l-2.171 4.342a3 3 0 0 1 -2.683 1.658z" fill="#547580"/><path d="m20 13h20a1 1 0 0 1 1 1v4a0 0 0 0 1 0 0h-22a0 0 0 0 1 0 0v-4a1 1 0 0 1 1-1z" fill="#3f5c6c"/></svg>