<svg fill="none" height="512" viewBox="0 0 128 128" width="512" xmlns="http://www.w3.org/2000/svg"><path d="m14 43c0-2.7614 2.2386-5 5-5h84.805c2.426 0 4.502 1.7418 4.924 4.1311l5.195 29.4378c.051.2868.076.5776.076.8689v14.5622c0 2.7614-2.239 5-5 5h-90c-2.7614 0-5-2.2386-5-5z" fill="#ffba33"/><path d="m14 43c0-2.7614 2.2386-5 5-5h61.9785c2.7614 0 5 2.2386 5 5v17c0 2.7614-2.2386 5-5 5h-61.9785c-2.7614 0-5-2.2386-5-5z" fill="#027ef1"/><path d="m103.805 38c2.426 0 4.502 1.7418 4.924 4.1311l4.235 24c.541 3.0617-1.815 5.8689-4.924 5.8689h-17.4166c-1.0552 0-2.0832-.3338-2.9371-.9536l-7.6449-5.549c-1.2959-.9407-2.0629-2.4451-2.0629-4.0464v-18.451c0-2.7614 2.2386-5 5-5z" fill="#027ef1"/><path clip-rule="evenodd" d="m22 57v-11h55.9785v11zm-8-14c0-2.7614 2.2386-5 5-5h61.9785c.3425 0 .6769.0344 1 .1.3231-.0656.6575-.1 1-.1h20.8265c2.426 0 4.502 1.7418 4.924 4.1311l4.235 24c.541 3.0617-1.815 5.8689-4.924 5.8689h-17.4166c-1.0552 0-2.0832-.3338-2.9371-.9536l-7.6449-5.549c-.2091-.1518-.4044-.3182-.5849-.4974h-60.4565c-2.7614 0-5-2.2386-5-5zm71.9785 3h15.3095l3.177 18h-12.8676l-5.6189-4.0785z" fill="#ffba33" fill-rule="evenodd"/><path d="m102 87.5c0 6.9036-5.5964 12.5-12.5 12.5s-12.5-5.5964-12.5-12.5 5.5964-12.5 12.5-12.5 12.5 5.5964 12.5 12.5z" fill="#ffd482"/><path d="m51 87.5c0 6.9036-5.5964 12.5-12.5 12.5s-12.5-5.5964-12.5-12.5 5.5964-12.5 12.5-12.5 12.5 5.5964 12.5 12.5z" fill="#ffd482"/><path d="m84 37.5c0 11.3218-9.1782 20.5-20.5 20.5s-20.5-9.1782-20.5-20.5 9.1782-20.5 20.5-20.5 20.5 9.1782 20.5 20.5z" fill="#099718"/><g fill="#000"><path d="m70.5607 39.0729c1.6971-1.4143 1.9264-3.9366.5122-5.6337-1.4143-1.6971-3.9365-1.9264-5.6336-.5121l-3.1938 2.6615-.4171-.417c-1.5621-1.5621-4.0947-1.5621-5.6568 0-1.5621 1.562-1.5621 4.0947 0 5.6568l2.3542 2.3543c1.8286 1.8286 4.7499 1.9611 6.7365.3055z"/><path clip-rule="evenodd" d="m83.994 38c.2717-11.3572-9.1264-21-20.494-21-11.3674 0-20.7659 9.6428-20.494 21h-24.006c-2.7614 0-5 2.2386-5 5v44c0 2.7614 2.2386 5 5 5h7.8345c.9567 2.4785 2.6805 4.5755 4.8804 6h-13.7149c-2.2091 0-4 1.7909-4 4 0 2.209 1.7909 4 4 4h92c2.209 0 4-1.791 4-4 0-2.2091-1.791-4-4-4h-13.7149c2.1998-1.4245 3.9239-3.5215 4.8809-6h7.834c2.761 0 5-2.2386 5-5v-14.5622c0-.2913-.025-.5821-.076-.8689l-5.195-29.4378c-.422-2.3893-2.498-4.1311-4.924-4.1311zm-7.994-.5c0 6.9036-5.5964 12.5-12.5 12.5s-12.5-5.5964-12.5-12.5 5.5964-12.5 12.5-12.5 12.5 5.5964 12.5 12.5zm-6.1575 19.5h8.136v-4.9871c-2.256 2.2507-5.0337 3.9788-8.136 4.9871zm-24.5574 41h14.7149v-6h-9.8345c-.9567 2.4785-2.6805 4.5755-4.8804 6zm5.2183-14h9.4966v-19h-38v19h4.4966c1.5137-5.2 6.3148-9 12.0034-9s10.4897 3.8 12.0034 9zm32.2115 14h-14.7149v-6h9.8345c.9567 2.4785 2.6806 4.5755 4.8804 6zm6.7851-23c-5.6886 0-10.4897 3.8-12.0034 9h-9.4966v-19h9.8095c1.0697 0 2.1099.3421 2.9707.9772 1.811 1.336 5.0478 3.7204 6.9061 5.0692.8539.6198 1.8819.9536 2.9371.9536h15.3766v12h-4.497c-1.5133-5.2-6.3144-9-12.003-9zm-44.6603-29h-22.8397v11h35.1575c-5.4819-1.7818-9.9502-5.8109-12.3178-11zm41.1388 0v13.9215l5.6189 4.0785h12.8676l-3.177-18zm8.0215 41.5c0 2.4853-2.0147 4.5-4.5 4.5s-4.5-2.0147-4.5-4.5 2.0147-4.5 4.5-4.5 4.5 2.0147 4.5 4.5zm-51 0c0 2.4853-2.0147 4.5-4.5 4.5s-4.5-2.0147-4.5-4.5 2.0147-4.5 4.5-4.5 4.5 2.0147 4.5 4.5z" fill-rule="evenodd"/></g></svg>