<svg height="512" viewBox="0 0 58 59" width="512" xmlns="http://www.w3.org/2000/svg"><g id="081---Sunbathing" fill="none"><path id="Shape" d="m45.95 45h-.14c-.644994-.0514505-1.2492402-.3358017-1.7-.8l-6.11-6.12-2.46 2.46-3.54-.54.01-2.99 3.16-3.17c1.5642825-1.5597839 4.0957175-1.5597839 5.66 0l6.89 6.89c.7168842.715071.9316507 1.7919472.5439215 2.7273164-.3877291.9353692-1.3013771 1.5444952-2.3139215 1.5426836z" fill="#fdd7ad"/><path id="Shape" d="m19 22c-.0016504 2.7115496-1.8217037 5.0849975-4.44 5.79-.41-.17-1.12 1.21-1.56 1.21l-3-1-2.97-6.6v-.01c.31946937-3.1832254 3.0803078-5.5558955 6.275378-5.3930723 3.1950701.1628231 5.7004063 2.8038613 5.694622 6.0030723z" fill="#fdd7ad"/><path id="Shape" d="m35.54 40.54-4.45 4.46h-8.81l-2.41-2.4 5.66-4.24.44.44c1.1712702 1.1698135 3.0687298 1.1698135 4.24 0l1.8-1.79z" fill="#d75e72"/><path id="Shape" d="m25.53 38.36-5.66 6.64-9.05-9.01-.02.01-5.68-6c-.14-.14-.3-2.39-.47-2.5l-2.38-2.38c-.80261271-.7478823-1.13299673-1.8742222-.86154217-2.9371556.27145456-1.0629335 1.10145307-1.892932 2.16438654-2.1643866 1.06293346-.2714545 2.18927331.0589295 2.93715563.8615422l.52.51v.01l6.15 6.14h.08c.4454871-.0022074.8871068.0827195 1.3.25.4427427.1761725.8444299.4416946 1.18.78l.84.84.72.72.71.71 3.97 3.97.72.72.7.71h.01z" fill="#f9c795"/><path id="Shape" d="m18.01 30.84c-.0459624.0448012-.0962022.084993-.15.12l-1.3.87c-.1646841.1130289-.3602737.1724043-.56.17-.3321039-.0015914-.6422908-.1660278-.83-.44-.1488534-.2200282-.2040417-.4902421-.1533875-.7510177.0506543-.2607756.2029878-.4906795.4233875-.6389823l1.14-.76.72.72z" fill="#cb8252"/><path id="Shape" d="m23.4 36.24c-.0392369.0479313-.0866316.0885554-.14.12l-.7.47c-.1646841.1130289-.3602737.1724043-.56.17-.3321039-.0015914-.6422908-.1660278-.83-.44-.1488534-.2200282-.2040417-.4902421-.1533875-.7510177.0506543-.2607756.2029878-.4906795.4233875-.6389823l.54-.36.72.72z" fill="#cb8252"/><path id="Shape" d="m47.9 10c-1.9049045-1.87010183-4.7076079-2.49398463-7.2259092-1.60849007-2.5183013.88549457-4.3137487 3.12619637-4.6290092 5.77696097s.9045546 5.2500773 3.1449184 6.7015291c1.1318762.7417787 2.4567235 1.1347125 3.81 1.13 2.8444278.0004147 5.4062838-1.7204262 6.4815684-4.3537762 1.0752846-2.6333501.4501658-5.6555391-1.5815684-7.6462238z" fill="#f3d55b"/><g fill="#f0c419"><path id="Shape" d="m43 4c-.5522847 0-1-.44771525-1-1v-2c0-.55228475.4477153-1 1-1s1 .44771525 1 1v2c0 .55228475-.4477153 1-1 1z"/><path id="Shape" d="m43 30c-.5522847 0-1-.4477153-1-1v-2c0-.5522847.4477153-1 1-1s1 .4477153 1 1v2c0 .5522847-.4477153 1-1 1z"/><path id="Shape" d="m57 16h-2c-.5522847 0-1-.4477153-1-1s.4477153-1 1-1h2c.5522847 0 1 .4477153 1 1s-.4477153 1-1 1z"/><path id="Shape" d="m31 16h-2c-.5522847 0-1-.4477153-1-1s.4477153-1 1-1h2c.5522847 0 1 .4477153 1 1s-.4477153 1-1 1z"/><path id="Shape" d="m51.485 7.515c-.4043959-.00008635-.7689341-.2437275-.923678-.61734544s-.0692299-.80366031.216678-1.08965456l1.414-1.414c.2510745-.25995658.6228779-.3642126.9725073-.27269716.3496295.09151544.6226744.3645604.7141899.71418984.0915154.34962943-.0127406.72143285-.2726972.97250732l-1.414 1.414c-.1874927.18754937-.4418052.29294336-.707.293z"/><path id="Shape" d="m33.1 25.9c-.4043959-.0000863-.7689341-.2437275-.923678-.6173454-.1547439-.373618-.0692299-.8036603.216678-1.0896546l1.414-1.414c.3923789-.3789722 1.0160848-.3735524 1.4018186.0121814s.3911536 1.0094397.0121814 1.4018186l-1.414 1.414c-.1874927.1875494-.4418052.2929434-.707.293z"/><path id="Shape" d="m52.9 25.9c-.2651948-.0000566-.5195073-.1054506-.707-.293l-1.414-1.414c-.3789722-.3923789-.3735524-1.0160848.0121814-1.4018186s1.0094397-.3911536 1.4018186-.0121814l1.414 1.414c.2859079.2859943.3714219.7160366.216678 1.0896546-.1547439.3736179-.5192821.6172591-.923678.6173454z"/><path id="Shape" d="m34.515 7.515c-.2651948-.00005664-.5195073-.10545063-.707-.293l-1.414-1.414c-.3789722-.39237889-.3735524-1.01608478.0121814-1.40181858.3857338-.38573379 1.0094397-.39115363 1.4018186-.01218142l1.414 1.414c.2859079.28599425.3714219.71603662.216678 1.08965456s-.5192821.61725909-.923678.61734544z"/><path id="Shape" d="m43 4c-.5522847 0-1-.44771525-1-1v-2c0-.55228475.4477153-1 1-1s1 .44771525 1 1v2c0 .55228475-.4477153 1-1 1z"/><path id="Shape" d="m57 16h-2c-.5522847 0-1-.4477153-1-1s.4477153-1 1-1h2c.5522847 0 1 .4477153 1 1s-.4477153 1-1 1z"/><path id="Shape" d="m31 16h-2c-.5522847 0-1-.4477153-1-1s.4477153-1 1-1h2c.5522847 0 1 .4477153 1 1s-.4477153 1-1 1z"/><path id="Shape" d="m51.485 7.515c-.4043959-.00008635-.7689341-.2437275-.923678-.61734544s-.0692299-.80366031.216678-1.08965456l1.414-1.414c.2510745-.25995658.6228779-.3642126.9725073-.27269716.3496295.09151544.6226744.3645604.7141899.71418984.0915154.34962943-.0127406.72143285-.2726972.97250732l-1.414 1.414c-.1874927.18754937-.4418052.29294336-.707.293z"/><path id="Shape" d="m33.1 25.9c-.4043959-.0000863-.7689341-.2437275-.923678-.6173454-.1547439-.373618-.0692299-.8036603.216678-1.0896546l1.414-1.414c.3923789-.3789722 1.0160848-.3735524 1.4018186.0121814s.3911536 1.0094397.0121814 1.4018186l-1.414 1.414c-.1874927.1875494-.4418052.2929434-.707.293z"/><path id="Shape" d="m52.9 25.9c-.2651948-.0000566-.5195073-.1054506-.707-.293l-1.414-1.414c-.3789722-.3923789-.3735524-1.0160848.0121814-1.4018186s1.0094397-.3911536 1.4018186-.0121814l1.414 1.414c.2859079.2859943.3714219.7160366.216678 1.0896546-.1547439.3736179-.5192821.6172591-.923678.6173454z"/><path id="Shape" d="m34.515 7.515c-.2651948-.00005664-.5195073-.10545063-.707-.293l-1.414-1.414c-.3789722-.39237889-.3735524-1.01608478.0121814-1.40181858.3857338-.38573379 1.0094397-.39115363 1.4018186-.01218142l1.414 1.414c.2859079.28599425.3714219.71603662.216678 1.08965456s-.5192821.61725909-.923678.61734544z"/></g><path id="Shape" d="m58 47v2c-.0032948 1.1032019-.8967981 1.9967052-2 2h-36.24l-18.88-18.88c-.85688121-.8579473-1.11303278-2.1473683-.6491479-3.2676941.46388487-1.1203257 1.55658128-1.8512394 2.7691479-1.8523059.58741151-.0006311 1.16174646.1734098 1.65.5.16950042.109915.32702593.2372761.47.38l5.69 5.69.01-.02 9.05 9.05 2.41 2.4h33.72c1.1032019.0032948 1.9967052.8967981 2 2z" fill="#cb8252"/><path id="Shape" d="m19.76 51h-12.76c-1.65685425 0-3-1.3431458-3-3s1.34314575-3 3-3h6.76z" fill="#805333"/><circle id="Oval" cx="50" cy="55" fill="#805333" r="4"/><path id="Shape" d="m10 51h5v6c0 1.1045695-.8954305 2-2 2h-1c-1.1045695 0-2-.8954305-2-2z" fill="#603e26"/><circle id="Oval" cx="50" cy="55" fill="#2c2f38" r="2"/></g></svg>